<svg xmlns="http://www.w3.org/2000/svg" width="248" height="55" viewBox="0 0 248 55" fill="none">
<path d="M55.3829 44.9188L55.6381 45.4292L55.1276 45.8121C54.8724 45.9397 53.4687 46.9606 51.9374 47.471C52.3202 47.9814 52.703 48.6195 52.9582 49.1299L53.3411 49.8956L52.703 50.2784C51.1717 51.2993 49.3852 51.8097 47.471 51.8097C46.3225 51.8097 45.0464 51.5545 43.8979 51.1717C43.0047 50.7889 42.239 50.2784 41.4733 49.768C37.007 53.0859 31.5197 55 25.9049 55C11.6125 55 0 43.3875 0 29.0951C0 23.7355 1.65893 18.5035 4.72157 14.1647C4.33874 12.3782 4.21115 10.3364 4.33876 8.16705C4.46637 5.87006 4.72158 3.57308 5.10441 0.893268L5.23203 0L6.1253 0.255217C6.50813 0.382827 7.01857 0.510441 7.4014 0.638051C10.9745 1.78654 14.1647 3.19024 16.5893 4.84917C19.5244 3.70068 22.7146 3.19026 25.9049 3.19026C40.1972 3.19026 51.8098 14.8028 51.8098 29.0951C51.8098 31.0093 51.5545 32.7958 51.1717 34.5824C51.6822 34.71 52.3202 34.8376 52.8306 35.0928L53.2135 35.2204L53.3411 35.6032C53.5963 37.5174 53.3411 39.6868 52.4478 41.3457C52.4478 41.4733 52.3202 41.6009 52.3202 41.6009C53.7239 42.1114 54.6172 43.2599 55.3829 44.9188ZM50.9165 46.0673C51.6822 46.0673 52.9582 45.4292 53.8515 44.7912C53.3411 43.7703 52.5754 43.0046 51.6821 42.4942C51.0441 43.3875 50.1508 44.0255 49.2576 44.536C49.8956 45.174 50.4061 45.6845 50.9165 46.0673ZM51.2993 40.4524C51.9374 39.1763 52.1926 37.3898 52.065 35.9861C51.1717 35.7309 50.0232 35.4756 49.0023 35.4756C49.5128 38.2831 49.0023 41.2181 47.471 43.6427C47.5986 43.7703 47.7262 43.7703 47.8538 43.8979C49.2575 43.2599 50.5336 41.9838 51.2993 40.4524ZM51.4269 49.2575C51.1717 48.7471 50.7889 48.109 50.406 47.5986C49.768 46.8329 48.8747 46.0673 47.7262 45.3016C47.3434 45.0464 46.833 44.7912 46.4501 44.536C44.7912 43.6427 42.239 42.7494 39.4316 42.3666C39.4316 42.877 39.5592 43.3875 39.6868 43.8979L40.0696 44.9188C40.4525 45.8121 40.9629 46.7053 41.6009 47.3434C42.4942 48.2367 43.5151 49.0023 44.6636 49.5128C46.7053 50.5336 49.3852 50.406 51.4269 49.2575ZM49.6404 34.0719C50.0232 32.413 50.2784 30.6264 50.2784 28.8399C50.2784 15.4408 39.4316 4.59396 26.0325 4.59396C23.4803 4.59396 20.9281 4.9768 18.5035 5.74246C20.9281 7.529 22.7146 9.57075 23.8631 11.8677C23.9907 11.9953 23.9907 12.2506 24.1183 12.3782C25.0116 14.42 25.3944 16.4617 25.3944 18.5035C25.7773 17.4826 26.2877 16.5893 26.7981 15.5684C27.4362 14.42 28.2019 13.3991 29.2228 12.6334C31.3921 10.9745 33.4339 10.464 35.7309 11.1021C37.9002 11.6125 38.7935 13.2714 39.4316 14.4199C39.8144 15.058 40.0696 15.5684 40.1972 16.0789C40.5801 16.8445 40.8353 17.6102 41.3457 18.2482L44.0255 21.6937L40.3248 19.2691C39.4316 18.7587 38.6659 18.5035 38.0279 18.7587C36.1137 19.5244 34.9652 23.7355 34.0719 27.181C33.9443 27.5638 33.9443 27.9466 33.8167 28.2018C33.4339 29.3503 33.051 30.4988 32.5406 31.6473C31.0093 34.8376 28.9675 36.6241 27.0534 37.3898L30.3712 41.3457C32.9234 40.8353 35.4756 40.58 37.9002 40.7077C38.1555 39.1763 38.7935 37.7726 39.942 36.3689C41.9838 33.9443 44.4084 33.051 46.833 32.0302L47.5986 31.7749L47.8538 32.2854C48.1091 32.7958 48.3643 33.1787 48.4919 33.6891C49.0023 34.0719 49.2576 34.0719 49.6404 34.0719ZM46.1949 42.877C47.9814 40.1972 48.2367 36.6241 46.9606 33.8167C44.7912 34.71 42.7494 35.4756 41.0905 37.5174C40.1972 38.6659 39.5592 39.8144 39.4316 41.0905C41.9838 41.3457 44.2807 41.9838 46.1949 42.877ZM40.3248 48.3643C39.4316 47.3434 38.6659 45.9397 38.2831 44.536C38.0278 43.7703 37.9002 43.0046 37.9002 42.239C35.348 42.1114 32.5406 42.239 29.7332 43.0046C27.0534 43.6427 24.5012 44.9188 21.949 46.7053L21.0557 45.5568C23.4803 43.7703 26.1601 42.4942 28.8399 41.7285L25.6497 37.9002C23.7355 38.4107 21.949 38.2831 20.8005 38.1555C20.4176 38.7935 20.1624 39.4316 19.7796 40.0696C18.1207 42.4942 16.0789 43.7703 13.7819 44.0255C13.5267 44.0255 13.2715 44.0255 13.0162 44.0255C10.3364 44.0255 8.16706 42.6218 7.4014 41.9838L7.27378 41.8561L8.29467 40.8353C9.06033 41.4733 11.2297 42.877 13.7819 42.6218C15.6961 42.3666 17.355 41.3457 18.7587 39.3039C19.7796 37.7726 20.6729 35.6032 21.3109 32.413L21.4385 31.6473C21.6937 30.4988 21.949 29.2227 22.3318 27.9466C17.2274 27.3086 11.4849 26.0325 7.91183 21.0557C7.01856 19.7796 6.2529 18.5035 5.74246 16.8445C5.61485 16.5893 5.48724 16.2065 5.48724 15.9513C3.19026 19.7796 1.91415 24.1183 1.91415 28.7123C1.91415 33.9443 3.57309 38.7935 6.38051 42.7494C10.8469 48.8747 17.993 52.9582 26.1601 52.9582C31.1369 53.0859 36.2413 51.4269 40.3248 48.3643ZM39.1763 17.355C39.0487 17.0998 39.0487 16.9721 38.9211 16.7169C38.6659 16.2065 38.4107 15.6961 38.1555 15.1856C37.5174 14.0371 36.8794 12.8886 35.348 12.5058C33.4339 11.9953 31.7749 12.3782 29.9884 13.7819C29.0951 14.4199 28.4571 15.3132 27.9467 16.2065C26.4153 18.8863 25.3944 21.8214 24.5012 24.884C23.8631 27.181 23.3527 29.6056 22.7146 31.9026L22.587 32.6682C22.2042 34.3271 21.8214 35.7309 21.4385 36.8793C22.7146 37.007 24.5012 37.007 26.1601 36.3689C28.0743 35.7309 29.9884 34.1995 31.3921 31.0093C31.9026 29.9884 32.2854 28.9675 32.5406 27.819C32.6682 27.4362 32.6682 27.181 32.7958 26.7981C33.9443 22.7146 35.0928 18.3759 37.645 17.4826C38.1555 17.355 38.6659 17.355 39.1763 17.355ZM22.3318 25.522C23.3527 22.587 23.9907 19.1415 23.3527 15.696C22.7146 17.8654 21.5661 19.7796 20.29 20.6729C20.9281 22.3318 21.6937 23.8631 22.3318 25.522ZM19.5244 19.1415C20.8005 17.8654 22.0766 15.058 22.2042 12.6334C21.1833 10.5916 19.652 8.80509 17.4826 7.14616C17.2274 9.06032 16.3341 10.5916 15.4408 11.6125C16.4617 13.2715 17.355 14.9304 18.3759 16.7169C18.7587 17.4826 19.1415 18.2483 19.5244 19.1415ZM20.8005 26.1601C19.9072 23.9907 19.0139 21.9489 18.1206 19.9072C17.7378 19.0139 17.355 18.2483 16.8445 17.355C15.4408 17.993 13.6543 18.3759 11.8678 18.3759C10.464 18.3759 9.06033 18.1206 7.65661 17.7378C8.03944 18.6311 8.54989 19.3967 9.06033 20.1624C11.9954 24.1183 16.4617 25.522 20.8005 26.1601ZM14.42 10.0812C15.4408 8.67749 15.9513 7.27377 15.8237 5.87006C13.7819 4.59396 11.2297 3.31785 8.29467 2.29697C10.5916 4.84917 12.6334 7.40139 14.42 10.0812ZM16.0789 15.9513C15.1856 14.2923 14.1647 12.6334 13.1439 11.1021C12.6334 10.3364 12.123 9.69838 11.6125 8.93272C11.1021 9.06033 10.5917 9.06032 9.9536 9.06032C8.6775 9.06032 7.27378 8.80509 5.99768 8.42226C5.99768 11.1021 6.25291 13.5267 6.89096 15.5684C9.69839 17.0998 13.3991 17.0998 16.0789 15.9513ZM6.1253 6.76333C7.4014 7.27377 9.18794 7.529 10.5917 7.529C9.31555 5.87006 8.03945 4.33874 6.50813 2.80742C6.25291 4.21113 6.1253 5.48722 6.1253 6.76333Z" fill="#7F6960"/>
<path d="M34.9646 14.1647C35.475 14.1647 35.8578 14.5475 35.8578 15.058C35.8578 15.5684 35.475 15.9513 34.9646 15.9513C34.4541 15.9513 34.0713 15.5684 34.0713 15.058C34.0713 14.5475 34.4541 14.1647 34.9646 14.1647Z" fill="#7F6960"/>
</svg>